<svg xmlns="http://www.w3.org/2000/svg" width="49" height="24" viewBox="0 0 49 24" fill="none">
<path d="M10.3476 7.23699C10.8161 7.08084 11.3158 6.99756 11.8342 6.99756C14.1036 6.99756 15.9982 8.60904 16.4313 10.7514L19.648 10.0956C18.911 6.45624 15.6922 3.71631 11.8342 3.71631C10.9493 3.71631 10.102 3.85997 9.30664 4.12647L10.3476 7.23699Z" fill="#9E9E9E"/>
<path d="M6.55202 17.6595L8.72773 15.2006C7.75751 14.3407 7.1454 13.0853 7.1454 11.6862C7.1454 10.2891 7.75751 9.0337 8.72773 8.17591L6.55202 5.71497C4.90307 7.17654 3.86206 9.3106 3.86206 11.6862C3.86206 14.0638 4.90307 16.1979 6.55202 17.6595" fill="white"/>
<path d="M16.4313 12.6273C15.9961 14.7676 14.1036 16.377 11.8363 16.377C11.3158 16.377 10.814 16.2937 10.3476 16.1355L9.30664 19.2502C10.102 19.5146 10.9514 19.6583 11.8363 19.6583C15.6901 19.6583 18.9068 16.9225 19.648 13.2873L16.4313 12.6273Z" fill="#C5C3C3"/>
<path d="M22.4607 15.3026C22.3545 15.1319 22.213 14.8591 22.1255 14.6572C21.6154 13.4746 21.5925 12.2504 22.0214 11.0761C22.494 9.78736 23.3976 8.80257 24.5656 8.29872C26.0334 7.66787 27.6553 7.79071 29.0628 8.6256C29.956 9.13777 30.5889 9.92894 31.0698 11.0491C31.1302 11.1927 31.1843 11.3447 31.2385 11.4759L22.4607 15.3026ZM25.3922 10.1996C24.3491 10.6472 23.8119 11.6258 23.9244 12.7709L28.3382 10.87C27.5783 9.97891 26.5914 9.68326 25.3922 10.1996V10.1996ZM28.8879 14.3345C28.8858 14.3345 28.8858 14.3366 28.8858 14.3366L28.7942 14.2741C28.5298 14.7009 28.1196 15.0486 27.6012 15.2735C26.6143 15.7024 25.7003 15.592 25.0424 15.0153L24.982 15.1069C24.982 15.1069 24.982 15.1048 24.9799 15.1048L23.8598 16.7808C24.1388 16.9745 24.4365 17.1369 24.7488 17.268C25.9856 17.7823 27.2514 17.7573 28.4986 17.216C29.4001 16.8246 30.1079 16.2291 30.591 15.4733L28.8879 14.3345ZM34.3053 5.83362V15.1485L35.7544 15.7357L34.932 17.6553L33.333 16.989C32.9749 16.8329 32.7292 16.5955 32.546 16.327C32.369 16.0542 32.2378 15.6774 32.2378 15.1735V5.83362H34.3053ZM38.0571 12.7771C38.0571 11.9839 38.4089 11.2718 38.9628 10.7888L37.4762 9.13153C36.4685 10.0226 35.8335 11.3239 35.8335 12.773C35.8314 14.2241 36.4664 15.5275 37.472 16.4186L38.9565 14.7613C38.4048 14.2762 38.0571 13.5683 38.0571 12.7771V12.7771ZM40.6971 15.4192C40.4056 15.4192 40.1224 15.3692 39.8601 15.2818L39.1501 17.3909C39.6352 17.5533 40.1537 17.6428 40.695 17.6428C43.0477 17.6449 45.011 15.9751 45.467 13.7578L43.285 13.3122C43.0373 14.5177 41.9733 15.4213 40.6971 15.4192V15.4192ZM40.7033 7.91147C40.1641 7.91147 39.6457 7.99891 39.1605 8.15923L39.8643 10.2704C40.1287 10.1829 40.4098 10.1351 40.7012 10.1351C41.9796 10.1371 43.0456 11.0449 43.2871 12.2525L45.469 11.8111C45.0214 9.58957 43.0581 7.91355 40.7033 7.91147V7.91147Z" fill="white"/>
</svg>
